# xmcd
#
# Track frame offsets: 
#        150
#        11560
#        54792
#        95061
#        114638
#        148315
#        169155
#        190494
#        216396
#        237906
#        262518
#
# Disc length: 4042 seconds
#
# Revision: 3
# Processed by: cddbd v1.4PL0 Copyright (c) Steve Scherf et al.
# Submitted via: ExactAudioCopy v0.90b4
#
DISCID=9b0fc80b
DTITLE=Metallica - Desconocido
DYEAR=1900
DGENRE=
TTITLE0=The Ecstasy Of Gold
TTITLE1=The Call Of The Ktulu
TTITLE2=Masters Of Puppets
TTITLE3=Of Wolf And Man
TTITLE4=The Thing That Should Not Be
TTITLE5=Fuel
TTITLE6=The Memory Remains
TTITLE7=No Leaf Clover
TTITLE8=Hero Of The Day
TTITLE9=Devil's Dance
TTITLE10=Bleeding Me
EXTD=
EXTT0=
EXTT1=
EXTT2=
EXTT3=
EXTT4=
EXTT5=
EXTT6=
EXTT7=
EXTT8=
EXTT9=
EXTT10=
PLAYORDER=
